<svg width="32" height="32" viewBox="0 0 32 32" fill="none" xmlns="http://www.w3.org/2000/svg">
<rect width="32" height="32" rx="16" fill="url(#paint0_linear_598_3070)"/>
<g clip-path="url(#clip0_598_3070)">
<path d="M11.8401 21.2167C12.6117 19.7033 14.1849 18.6668 16.0002 18.6668C17.8014 18.6668 19.3643 19.6874 20.1422 21.1817M17.5557 14.9631C17.5557 15.8632 16.8261 16.5928 15.9261 16.5928C15.0261 16.5928 14.2965 15.8632 14.2965 14.9631C14.2965 14.0631 15.0261 13.3335 15.9261 13.3335C16.8261 13.3335 17.5557 14.0631 17.5557 14.9631ZM16.0002 22.6668C12.3183 22.6668 9.3335 19.682 9.3335 16.0002C9.3335 12.3183 12.3183 9.3335 16.0002 9.3335C19.682 9.3335 22.6668 12.3183 22.6668 16.0002C22.6668 19.682 19.682 22.6668 16.0002 22.6668Z" stroke="#2279F5" stroke-linecap="round" stroke-linejoin="round"/>
</g>
<defs>
<linearGradient id="paint0_linear_598_3070" x1="16" y1="29.3333" x2="16" y2="2.66667" gradientUnits="userSpaceOnUse">
<stop stop-color="#CEE1FD"/>
<stop offset="1" stop-color="#CCF6FF"/>
</linearGradient>
<clipPath id="clip0_598_3070">
<rect width="16" height="16" fill="white" transform="translate(8 8)"/>
</clipPath>
</defs>
</svg>
