<svg width="16" height="16" viewBox="0 0 16 16" fill="none" xmlns="http://www.w3.org/2000/svg">
<path d="M3.84008 13.2165C4.6117 11.7031 6.18489 10.6666 8.00016 10.6666C9.80143 10.6666 11.3643 11.6871 12.1422 13.1815M9.5557 6.96285C9.5557 7.86292 8.8261 8.59252 7.9261 8.59252C7.0261 8.59252 6.29646 7.86292 6.29646 6.96285C6.29646 6.06286 7.0261 5.33325 7.9261 5.33325C8.8261 5.33325 9.5557 6.06286 9.5557 6.96285ZM8.00016 14.6666C4.31826 14.6666 1.3335 11.6818 1.3335 7.99992C1.3335 4.31802 4.31826 1.33325 8.00016 1.33325C11.682 1.33325 14.6668 4.31802 14.6668 7.99992C14.6668 11.6818 11.682 14.6666 8.00016 14.6666Z" stroke="#2279F5" stroke-linecap="round" stroke-linejoin="round"/>
</svg>
