<svg width="298" height="41" viewBox="0 0 298 41" fill="none" xmlns="http://www.w3.org/2000/svg">
<mask id="mask0_1538_683" style="mask-type:luminance" maskUnits="userSpaceOnUse" x="0" y="21" width="3" height="4">
<path d="M2.25874 21.4904H0V24.1308H2.25874V21.4904Z" fill="white"/>
</mask>
<g mask="url(#mask0_1538_683)">
<path d="M2.19893 22.8024C2.19893 22.9453 2.17063 23.0839 2.11603 23.2149C2.062 23.3476 1.98221 23.4639 1.88178 23.5657C1.78022 23.6659 1.66254 23.744 1.52986 23.7986C1.39717 23.8532 1.25855 23.8812 1.11596 23.8812C0.972809 23.8812 0.834177 23.8532 0.701493 23.7986C0.56881 23.7442 0.451132 23.6659 0.349568 23.5657C0.249419 23.4642 0.171053 23.3476 0.11532 23.2149C0.0607189 23.0839 0.0329895 22.9453 0.0329895 22.8024C0.0329895 22.6596 0.0607189 22.5224 0.11532 22.39C0.171053 22.2573 0.249702 22.141 0.349568 22.0409C0.451132 21.9393 0.56881 21.8612 0.701493 21.8066C0.834177 21.752 0.972809 21.724 1.11596 21.724C1.25855 21.724 1.39717 21.752 1.52986 21.8066C1.66254 21.8612 1.78022 21.9393 1.88178 22.0409C1.98221 22.141 2.062 22.2576 2.11603 22.39C2.17063 22.5224 2.19893 22.6596 2.19893 22.8024Z" fill="white"/>
</g>
<path d="M18.0664 22.8024C18.0664 22.9453 18.0381 23.0839 17.984 23.2149C17.9294 23.3476 17.8513 23.4639 17.7498 23.5657C17.6482 23.6659 17.5317 23.744 17.399 23.7986C17.2663 23.8532 17.1277 23.8812 16.9834 23.8812C16.8402 23.8812 16.7022 23.8532 16.5695 23.7986C16.4368 23.7442 16.3203 23.6659 16.2187 23.5657C16.1171 23.4642 16.039 23.3476 15.9844 23.2149C15.9287 23.0839 15.9021 22.9453 15.9021 22.8024C15.9021 22.6596 15.9287 22.5224 15.9844 22.39C16.039 22.2573 16.1171 22.141 16.2187 22.0409C16.3203 21.9393 16.4368 21.8612 16.5695 21.8066C16.7022 21.752 16.8402 21.724 16.9834 21.724C17.1277 21.724 17.2663 21.752 17.399 21.8066C17.5317 21.8612 17.6482 21.9393 17.7498 22.0409C17.8513 22.141 17.9294 22.2576 17.984 22.39C18.0384 22.5224 18.0664 22.6596 18.0664 22.8024Z" fill="white"/>
<path d="M1.88123 18.9903C1.32871 17.9455 1.30665 16.7519 1.88123 15.9417C2.88357 14.5345 5.45747 14.6081 6.47395 15.9417C7.58069 17.3916 6.66576 20.11 4.93889 20.5154C3.90486 20.7585 2.66092 20.1485 1.88123 18.9903Z" fill="white"/>
<path d="M12.8665 17.7762C12.314 16.7314 12.2908 15.5378 12.8665 14.7262C13.8688 13.3204 16.4427 13.3942 17.4592 14.7262C18.5659 16.1775 17.651 18.8945 15.9242 19.3013C14.891 19.5401 13.6476 18.9344 12.8665 17.7762Z" fill="white"/>
<path d="M32.7924 29.6901C32.3222 28.8015 32.3001 27.7864 32.7924 27.0955C33.6422 25.9005 35.8336 25.9625 36.6985 27.0955C37.64 28.3304 36.8648 30.6406 35.3959 30.9869C34.513 31.1932 33.4583 30.6749 32.7924 29.6901Z" fill="white"/>
<path d="M9.52158 6.62483C8.96906 5.58006 8.9453 4.38817 9.52158 3.57622C10.5222 2.16904 13.0961 2.24288 14.1143 3.57622C15.2222 5.02754 14.3104 7.74458 12.5832 8.14999C11.5464 8.393 10.3024 7.78277 9.52158 6.62483Z" fill="white"/>
<path d="M18.118 4.72333C17.5644 3.67714 17.5423 2.48497 18.118 1.67331C19.1204 0.267539 21.6943 0.341378 22.7096 1.67331C23.8175 3.12462 22.9068 5.84308 21.1785 6.24849C20.1425 6.49009 18.8994 5.87986 18.118 4.72333Z" fill="white"/>
<path d="M31.6635 15C31.376 14.4636 31.3673 13.8537 31.6635 13.4322C32.1789 12.7102 33.5024 12.7484 34.0257 13.4322C34.5944 14.1793 34.1214 15.576 33.239 15.784C32.7051 15.9062 32.0658 15.5953 31.6635 15Z" fill="white"/>
<path d="M18.237 25.945C17.9496 25.4072 17.9397 24.7972 18.237 24.3771C18.7513 23.6551 20.0748 23.6919 20.5976 24.3771C21.1679 25.1225 20.6991 26.5195 19.8108 26.7289C19.2775 26.8528 18.6382 26.5388 18.237 25.945Z" fill="white"/>
<path d="M4.94477 23.5637C4.6381 23.9881 4.56737 24.7293 4.94477 25.0889C5.37196 25.5 6.16324 25.2037 6.47982 25.0889C7.2745 24.7927 8.16284 24.0311 8.00922 23.5637C7.79873 22.9374 5.63704 22.603 4.94477 23.5637Z" fill="white"/>
<path d="M23.0922 7.39408C22.7855 7.81703 22.7165 8.55966 23.0922 8.91923C23.5211 9.3303 24.3124 9.03409 24.6233 8.91923C25.4174 8.62161 26.3074 7.86116 26.1538 7.39408C25.945 6.76801 23.7833 6.43333 23.0922 7.39408Z" fill="white"/>
<path d="M27.9726 23.1975C27.6659 23.6205 27.5969 24.3631 27.9726 24.7269C28.4015 25.138 29.1911 24.8435 29.5082 24.7269C30.304 24.4307 31.1923 23.6705 31.0387 23.1975C30.8282 22.5712 28.6665 22.2368 27.9726 23.1975Z" fill="white"/>
<path d="M4.94434 29.6633C3.91427 29.6633 2.72521 27.621 3.40701 26.6144C3.9949 25.7538 5.88132 25.7538 6.4692 26.6144C7.16176 27.621 5.97101 29.6633 4.94434 29.6633Z" fill="white"/>
<path d="M39.326 27.7604C38.2971 27.7604 37.108 25.7166 37.7966 24.7103C38.3828 23.8497 40.2687 23.8497 40.8566 24.7103C41.5452 25.7181 40.3544 27.7604 39.326 27.7604Z" fill="white"/>
<path d="M33.5954 20.1517C32.9031 20.1517 32.1014 18.7754 32.5639 18.0975C32.9605 17.5184 34.2319 17.5184 34.6272 18.0975C35.0894 18.7754 34.2877 20.1517 33.5954 20.1517Z" fill="white"/>
<path d="M9.78215 27.1745C9.13514 27.3468 8.53566 28.2072 8.82733 29.0765C9.1043 29.9077 10.0269 30.2469 10.737 30.033C11.1585 29.9049 11.5874 29.5555 11.6918 29.0765C11.904 28.1231 10.7341 26.9194 9.78215 27.1745Z" fill="white"/>
<path d="M8.82745 17.6607C8.2854 17.8008 7.95949 19.9741 8.82745 20.5147C9.10753 20.6887 9.52595 20.7048 9.78226 20.5147C10.2624 20.1582 10.0581 19.1709 9.78226 18.6124C9.60827 18.2591 9.16354 17.5739 8.82745 17.6607Z" fill="white"/>
<path d="M8.13638 6.46955C7.66675 6.16458 5.83775 7.39353 6.02503 8.397C6.08529 8.72122 6.3566 9.03807 6.67035 9.09833C7.25823 9.21319 7.85064 8.39106 8.07895 7.81336C8.2221 7.44643 8.42692 6.65825 8.13638 6.46955Z" fill="white"/>
<path d="M31.7506 3.39211C31.2085 3.53215 30.8874 5.70403 31.7506 6.24608C32.0307 6.42007 32.4479 6.43761 32.7099 6.24608C33.1906 5.89103 32.9841 4.90227 32.7099 4.3424C32.5317 3.99018 32.0853 3.30497 31.7506 3.39211Z" fill="white"/>
<path d="M16.4708 7.19686C15.9287 7.3369 15.6071 9.5102 16.4708 10.0508C16.7492 10.2262 17.1693 10.2424 17.4301 10.0508C17.9102 9.69578 17.706 8.70702 17.4301 8.14856C17.2505 7.79493 16.8049 7.11284 16.4708 7.19686Z" fill="white"/>
<path d="M18.9105 12.0606C18.3684 12.2006 18.0456 14.3725 18.9105 14.9146C19.1889 15.0886 19.6073 15.1061 19.8698 14.9146C20.3499 14.5581 20.144 13.5708 19.8698 13.0109C19.6913 12.6558 19.2446 11.9738 18.9105 12.0606Z" fill="white"/>
<path d="M15.9089 1.49364C15.5403 1.58927 15.3182 3.06746 15.9089 3.43581C16.0079 3.49776 16.1165 3.5286 16.2331 3.5286C16.3508 3.5286 16.4586 3.49776 16.5584 3.43581C16.8872 3.1942 16.744 2.5223 16.5584 2.14065C16.441 1.90047 16.1372 1.43621 15.9089 1.49364Z" fill="white"/>
<path d="M9.78236 15.759C8.83038 16.0125 7.66225 14.8101 7.87273 13.8567C7.97599 13.3837 8.40601 13.0346 8.83207 12.9005C9.54217 12.6824 10.4647 13.0213 10.7434 13.8567C11.0289 14.7261 10.4294 15.5867 9.78236 15.759Z" fill="white"/>
<path d="M3.09704 11.0031C2.40646 11.9078 2.99095 13.5846 4.05638 13.8571C4.77411 14.0472 5.59369 13.5623 5.9677 12.9008C6.2755 12.3659 6.38612 11.563 5.9677 10.9986C5.33115 10.1527 3.73528 10.1719 3.09704 11.0031Z" fill="white"/>
<path d="M7.87273 9.09924C7.36435 9.60168 7.48967 10.505 7.87273 11.0029C8.5783 11.9091 10.3748 11.7337 10.7372 11.0029C11.0141 10.4476 10.4942 9.51313 9.77783 9.09924C9.32886 8.83246 8.41648 8.56426 7.87273 9.09924Z" fill="white"/>
<path d="M19.3349 7.19711C18.8248 7.69955 18.9504 8.60118 19.3349 9.09938C20.0393 10.0069 21.8352 9.83154 22.1993 9.09938C22.4752 8.54545 21.9546 7.611 21.2445 7.19711C20.789 6.93316 19.8786 6.66072 19.3349 7.19711Z" fill="white"/>
<path d="M22.9958 16.9229C22.4874 17.4239 22.6113 18.3269 22.9958 18.8251C23.7014 19.7327 25.4978 19.5576 25.8613 18.8251C26.1372 18.2698 25.6172 17.337 24.902 16.9229C24.4513 16.6589 23.5395 16.3851 22.9958 16.9229Z" fill="white"/>
<path d="M33.9443 6.17827C33.5465 6.57179 33.641 7.27765 33.9443 7.66665C34.4951 8.37533 35.8997 8.23982 36.1838 7.66665C36.4005 7.23182 35.9925 6.50248 35.4366 6.17827C35.0821 5.97203 34.3686 5.75843 33.9443 6.17827Z" fill="white"/>
<mask id="mask1_1538_683" style="mask-type:luminance" maskUnits="userSpaceOnUse" x="39" y="14" width="4" height="3">
<path d="M42.1534 14.3239H39.2253V16.9642H42.1534V14.3239Z" fill="white"/>
</mask>
<g mask="url(#mask1_1538_683)">
<path d="M39.675 14.7415C39.2772 15.1336 39.3711 15.8392 39.675 16.2282C40.2275 16.9369 41.6316 16.8013 41.9145 16.2282C42.1312 15.795 41.7227 15.064 41.169 14.7415C40.814 14.5353 40.1005 14.3217 39.675 14.7415Z" fill="white"/>
</g>
<path d="M28.6888 15.9565C28.2911 16.3486 28.3856 17.0541 28.6888 17.4431C29.2414 18.1532 30.6454 18.0177 30.93 17.4431C31.1467 17.01 30.7382 16.279 30.1829 15.9565C29.8278 15.7502 29.1149 15.5366 28.6888 15.9565Z" fill="white"/>
<path d="M35.5695 10.0508C35.06 10.5533 35.1851 11.4566 35.5695 11.9545C36.2757 12.8607 38.0716 12.6867 38.4357 11.9545C38.7115 11.3989 38.191 10.4647 37.4792 10.0508C37.0271 9.78858 36.1147 9.51444 35.5695 10.0508Z" fill="white"/>
<path d="M12.6483 9.09924C12.1383 9.60168 12.2639 10.505 12.6483 11.0029C13.3539 11.9091 15.1504 11.7337 15.5128 11.0029C15.7898 10.4476 15.2698 9.51313 14.558 9.09924C14.1039 8.83246 13.1932 8.56426 12.6483 9.09924Z" fill="white"/>
<mask id="mask2_1538_683" style="mask-type:luminance" maskUnits="userSpaceOnUse" x="23" y="0" width="5" height="4">
<path d="M27.1548 0H23.7599V3.38442H27.1548V0Z" fill="white"/>
</mask>
<g mask="url(#mask2_1538_683)">
<path d="M24.1091 0.537537C23.6007 1.03857 23.7247 1.94189 24.1091 2.43981C24.8147 3.34737 26.6112 3.17197 26.9753 2.43981C27.2505 1.88446 26.7306 0.951714 26.0205 0.537537C25.5661 0.273867 24.6546 0.00114454 24.1091 0.537537Z" fill="white"/>
</g>
<path d="M13.6036 31.9303C13.0565 31.0179 14.5231 28.9139 15.5133 29.0757C16.3249 29.2084 17.2356 30.9268 16.4692 31.9303C15.7574 32.8596 14.0221 32.6288 13.6036 31.9303Z" fill="white"/>
<path d="M11.1619 23.4193C10.6165 22.5087 12.0814 20.403 13.0715 20.5668C13.8832 20.6995 14.7956 22.4176 14.0281 23.4193C13.3163 24.3492 11.5803 24.1178 11.1619 23.4193Z" fill="white"/>
<path d="M30.7958 11.0031C30.2492 10.091 31.7141 7.9867 32.7054 8.14909C33.5159 8.28177 34.4283 10.0013 33.6602 11.0031C32.9484 11.9327 31.2128 11.7013 30.7958 11.0031Z" fill="white"/>
<path d="M18.5881 20.7276C18.0427 19.8169 19.5076 17.7129 20.4995 17.875C21.3094 18.0077 22.2218 19.7258 21.4588 20.7276C20.7425 21.6586 19.0066 21.4258 18.5881 20.7276Z" fill="white"/>
<path d="M27.9301 37.6385C27.3829 36.7267 28.8495 34.6227 29.8397 34.7845C30.6514 34.9172 31.562 36.635 30.799 37.6385C30.0838 38.5684 28.3482 38.3359 27.9301 37.6385Z" fill="white"/>
<path d="M9.7824 31.9299C9.26525 32.298 8.61994 33.0836 8.82759 33.8336C9.08843 34.7768 10.6108 35.3234 11.692 34.7839C12.775 34.2447 13.248 32.715 12.6486 31.9299C12.0652 31.1664 10.6252 31.3299 9.7824 31.9299Z" fill="white"/>
<path d="M5.96192 30.0279C5.12196 30.4373 5.13866 32.4176 5.96192 32.8807C6.34639 33.0974 6.81517 32.9206 6.91673 32.8807C7.56996 32.6332 8.15898 31.8343 7.87748 30.9782C7.56996 30.0749 6.50566 29.7671 5.96192 30.0279Z" fill="white"/>
<path d="M13.6034 35.7358C12.9536 36.0922 12.4525 36.916 12.6441 37.6377C12.9193 38.65 14.4875 39.1513 15.5097 38.5926C16.1584 38.2361 16.6622 37.4123 16.4645 36.6906C16.1937 35.6724 14.6273 35.1728 13.6034 35.7358Z" fill="white"/>
<path d="M9.16784 23.52C8.75055 23.75 8.42803 24.279 8.55505 24.7444C8.73017 25.3956 9.73818 25.717 10.3968 25.356C10.8152 25.126 11.1366 24.5913 11.0113 24.133C10.8344 23.4803 9.82644 23.1575 9.16784 23.52Z" fill="white"/>
<path d="M18.9344 28.3839C18.5171 28.614 18.1929 29.1444 18.3199 29.6084C18.4967 30.2599 19.5047 30.581 20.1633 30.22C20.5801 29.99 20.9026 29.4613 20.7761 28.9973C20.5976 28.3443 19.5913 28.0232 18.9344 28.3839Z" fill="white"/>
<path d="M22.425 33.8334C22.425 33.972 22.4117 34.1103 22.3837 34.2473C22.356 34.3842 22.3164 34.5169 22.2632 34.6467C22.2086 34.7766 22.1421 34.8988 22.0655 35.0153C21.9877 35.1302 21.8991 35.2374 21.7993 35.3364C21.7002 35.4355 21.5927 35.5237 21.4765 35.6018C21.3599 35.6785 21.236 35.745 21.1061 35.7979C20.9768 35.8511 20.8442 35.8918 20.7055 35.9184C20.5686 35.9467 20.4297 35.9597 20.2899 35.9597C20.1485 35.9597 20.0099 35.9464 19.8727 35.9184C19.7357 35.8918 19.6019 35.8511 19.4721 35.7979C19.3422 35.7447 19.22 35.6785 19.1023 35.6018C18.9857 35.524 18.8779 35.4355 18.7795 35.3364C18.6805 35.2374 18.5905 35.1302 18.5141 35.0153C18.4358 34.8988 18.3693 34.7766 18.3164 34.6467C18.2623 34.5169 18.2225 34.3842 18.1942 34.2473C18.1676 34.1103 18.1529 33.972 18.1529 33.8334C18.1529 33.6936 18.1679 33.555 18.1942 33.4178C18.2225 33.2808 18.2621 33.1482 18.3164 33.0183C18.3696 32.8901 18.4358 32.7662 18.5141 32.6514C18.5905 32.5354 18.6805 32.4276 18.7795 32.3286C18.8779 32.2301 18.9857 32.1418 19.1023 32.0632C19.22 31.9868 19.3422 31.9206 19.4721 31.8677C19.6019 31.8148 19.7357 31.7732 19.8727 31.7466C20.0096 31.7183 20.1485 31.7053 20.2899 31.7053C20.4297 31.7053 20.5683 31.7186 20.7055 31.7466C20.8442 31.7732 20.9768 31.8145 21.1061 31.8677C21.236 31.9209 21.3596 31.9871 21.4765 32.0632C21.5924 32.1416 21.7002 32.2301 21.7993 32.3286C21.8994 32.4276 21.9877 32.5351 22.0655 32.6514C22.1421 32.7662 22.2086 32.8901 22.2632 33.0183C22.3164 33.1482 22.356 33.2808 22.3837 33.4178C22.4117 33.5547 22.425 33.6936 22.425 33.8334Z" fill="white"/>
<path d="M18.3786 36.6867C17.909 37.0016 17.8204 38.0316 18.3786 38.5887C18.9356 39.1457 19.96 39.0792 20.2899 38.5887C20.5329 38.2263 20.3253 37.7284 20.2899 37.6327C19.9733 36.8794 18.915 36.3268 18.3786 36.6867Z" fill="white"/>
<path d="M32.7051 31.9299C32.2338 32.2448 32.1481 33.2748 32.7051 33.8336C33.2622 34.3906 34.2866 34.3227 34.6147 33.8336C34.8595 33.4683 34.6518 32.9732 34.6147 32.8771C34.3007 32.1228 33.2415 31.5703 32.7051 31.9299Z" fill="white"/>
<path d="M22.9405 29.4991C22.4692 29.814 22.3823 30.8441 22.9405 31.4011C23.4975 31.9582 24.5202 31.8917 24.8501 31.4011C25.0948 31.0387 24.8872 30.5408 24.8501 30.4452C24.5318 29.6918 23.4769 29.1393 22.9405 29.4991Z" fill="white"/>
<path d="M26.6023 18.5569C26.1309 18.8723 26.0435 19.9021 26.6023 20.4592C27.161 21.0162 28.1832 20.9497 28.5119 20.4592C28.7566 20.0968 28.549 19.5986 28.5119 19.5089C28.1982 18.7498 27.1389 18.2004 26.6023 18.5569Z" fill="white"/>
<path d="M27.8223 25.8483C27.3521 26.1634 27.2652 27.1932 27.8223 27.7502C28.3793 28.3073 29.4032 28.2408 29.7336 27.7502C29.9766 27.3867 29.7701 26.8899 29.7336 26.8C29.4179 26.0457 28.3598 25.4929 27.8223 25.8483Z" fill="white"/>
<path d="M36.5289 30.9782C36.0576 31.2947 35.9707 32.3248 36.5289 32.8807C37.0876 33.4378 38.1104 33.3713 38.4385 32.8807C38.6832 32.5183 38.4756 32.0215 38.4385 31.9304C38.1203 31.1728 37.0627 30.62 36.5289 30.9782Z" fill="white"/>
<path d="M23.0987 21.2533C22.6285 21.5688 22.5417 22.5985 23.0987 23.1556C23.6569 23.7126 24.6796 23.6447 25.0094 23.1556C25.2525 22.7915 25.0448 22.295 25.0094 22.1994C24.6943 21.4508 23.6345 20.8937 23.0987 21.2533Z" fill="white"/>
<path d="M27.93 4.34072C27.4598 4.65758 27.373 5.68765 27.93 6.24441C28.4871 6.80117 29.5109 6.73497 29.8397 6.24441C30.0838 5.88031 29.8762 5.3838 29.8397 5.28818C29.5225 4.53848 28.4676 3.98426 27.93 4.34072Z" fill="white"/>
<path d="M28.885 30.0278C28.4148 30.3432 28.3279 31.3733 28.885 31.9303C29.442 32.4874 30.4659 32.4209 30.7957 31.9303C31.0388 31.5662 30.8311 31.0694 30.7957 30.9783C30.4834 30.2204 29.4208 29.6713 28.885 30.0278Z" fill="white"/>
<path d="M36.6587 18.5941C36.2638 18.8577 36.1919 19.7212 36.6587 20.1883C37.1255 20.6539 37.9833 20.5993 38.2588 20.1883C38.4639 19.8847 38.2897 19.4649 38.2588 19.391C37.9954 18.7562 37.1051 18.2965 36.6587 18.5941Z" fill="white"/>
<path d="M30.5557 19.8108C30.1608 20.0747 30.0883 20.9365 30.5557 21.4035C31.0225 21.8706 31.8803 21.8146 32.1558 21.4035C32.3604 21.0986 32.1867 20.6801 32.1558 20.6063C31.8919 19.9715 31.005 19.5089 30.5557 19.8108Z" fill="white"/>
<path d="M22.0112 13.7319C21.6163 13.9956 21.5439 14.859 22.0112 15.3261C22.478 15.7917 23.3358 15.7357 23.6114 15.3261C23.8159 15.0211 23.6422 14.6027 23.6114 14.5288C23.3471 13.8937 22.4605 13.4297 22.0112 13.7319Z" fill="white"/>
<path d="M14.6873 24.6729C14.2926 24.9368 14.2188 25.8 14.6873 26.2656C15.1546 26.7327 16.0124 26.6767 16.2863 26.2656C16.4925 25.9621 16.3171 25.5423 16.2863 25.4698C16.0223 24.8336 15.1371 24.371 14.6873 24.6729Z" fill="white"/>
<path d="M39.3905 18.6134C38.9203 18.9288 38.8334 19.9586 39.3905 20.5156C39.9492 21.0727 40.9714 21.0062 41.3001 20.5156C41.546 20.1515 41.3372 19.655 41.3001 19.5594C40.9864 18.8063 39.9272 18.2538 39.3905 18.6134Z" fill="white"/>
<path d="M35.728 14.9646C35.2583 15.2798 35.1698 16.3113 35.728 16.8683C36.285 17.4254 37.3094 17.3589 37.6393 16.8683C37.8823 16.5042 37.6746 16.0077 37.6393 15.9163C37.3227 15.1576 36.2661 14.6051 35.728 14.9646Z" fill="white"/>
<path d="M27.93 9.09843C27.4598 9.41529 27.373 10.4451 27.93 11.0021C28.4871 11.5592 29.5109 11.4913 29.8397 11.0021C30.0838 10.638 29.8762 10.1415 29.8397 10.0459C29.5225 9.29279 28.4676 8.73716 27.93 9.09843Z" fill="white"/>
<path d="M22.1993 37.6385C21.5424 38.2855 21.3814 39.6825 22.1993 40.493C23.0155 41.303 24.3344 41.0201 25.0654 40.493C25.6092 40.0981 26.1999 39.3068 26.0202 38.5891C25.7136 37.3765 23.2574 36.5926 22.1993 37.6385Z" fill="white"/>
<path d="M33.66 21.4654C33.0048 22.1152 32.8438 23.5091 33.66 24.3194C34.4767 25.1299 35.7951 24.847 36.5261 24.3194C37.0699 23.9259 37.6623 23.1346 37.4809 22.4171C37.174 21.2046 34.7181 20.4206 33.66 21.4654Z" fill="white"/>
<path d="M22.6741 25.1143C22.0184 25.7628 21.8574 27.1566 22.6741 27.9669C23.4903 28.7774 24.8104 28.4945 25.5397 27.9669C26.0835 27.5751 26.6759 26.7824 26.4945 26.0649C26.1893 24.8535 23.7333 24.0681 22.6741 25.1143Z" fill="white"/>
<path d="M25.0655 31.9298C24.429 32.2922 23.8909 33.0996 24.1048 33.8335C24.2756 34.4064 24.8313 34.6735 25.0655 34.7838C25.1744 34.837 26.228 35.3258 26.9752 34.7838C27.8117 34.1755 27.8516 32.5709 26.9752 31.9298C26.3943 31.5066 25.5881 31.6322 25.0655 31.9298Z" fill="white"/>
<path d="M24.5848 11.1598C23.95 11.5239 23.4108 12.3299 23.63 13.0621C23.7998 13.6352 24.3551 13.9034 24.5848 14.014C24.6943 14.0672 25.7473 14.5564 26.4945 14.014C27.3316 13.4055 27.3715 11.7994 26.4945 11.1598C25.9156 10.7368 25.1082 10.8608 24.5848 11.1598Z" fill="white"/>
<g filter="url(#filter0_d_1538_683)">
<path d="M68.1528 13.2329H71.3441V20.4718C70.4095 21.2159 69.3204 21.7867 68.0744 22.1842C66.829 22.5822 65.5489 22.781 64.2344 22.781C62.384 22.781 60.7146 22.3788 59.2279 21.5745C57.7402 20.7702 56.5726 19.6592 55.7252 18.2405C54.8768 16.8228 54.4534 15.2224 54.4534 13.4405C54.4534 11.659 54.8768 10.0587 55.7252 8.6405C56.5726 7.22282 57.7443 6.11078 59.2399 5.30646C60.7354 4.50214 62.4182 4.09998 64.2874 4.09998C65.8088 4.09998 67.1933 4.35062 68.4387 4.85241C69.6831 5.3542 70.7302 6.08951 71.5776 7.05781L69.4501 9.13348C68.0656 7.74952 66.3973 7.05781 64.4425 7.05781C63.1624 7.05781 62.0254 7.32608 61.0311 7.86212C60.0359 8.39816 59.2575 9.1506 58.696 10.1194C58.1335 11.0882 57.8528 12.1951 57.8528 13.4405C57.8528 14.6516 58.1335 15.7414 58.696 16.7097C59.2575 17.6785 60.0359 18.4397 61.0311 18.9929C62.0254 19.5466 63.1546 19.8232 64.4171 19.8232C65.8348 19.8232 67.0807 19.5118 68.1528 18.8891V13.2329Z" fill="white"/>
<path d="M89.9205 19.6941V22.5222H76.299V4.36011H89.5578V7.18821H79.6719V11.9103H88.4416V14.6871H79.6719V19.6941H89.9205Z" fill="white"/>
<path d="M110.34 4.36011V22.5222H107.564L97.5491 10.2239V22.5222H94.2015V4.36011H96.9777L106.993 16.6584V4.36011H110.34Z" fill="white"/>
<path d="M129.359 19.6941V22.5222H115.737V4.36011H128.996V7.18821H119.11V11.9103H127.88V14.6871H119.11V19.6941H129.359Z" fill="white"/>
<path d="M135.209 22.1842C133.903 21.7867 132.869 21.2595 132.108 20.6015L133.276 17.981C134.02 18.5695 134.931 19.0494 136.013 19.421C137.093 19.7931 138.18 19.9783 139.269 19.9783C140.618 19.9783 141.626 19.7624 142.291 19.3297C142.957 18.8979 143.291 18.3266 143.291 17.6172C143.291 17.0983 143.104 16.6702 142.732 16.3329C142.36 15.9956 141.889 15.732 141.318 15.5416C140.747 15.3517 139.969 15.1358 138.983 14.8929C137.6 14.5645 136.48 14.2355 135.623 13.9075C134.766 13.5795 134.032 13.0643 133.418 12.3632C132.803 11.6627 132.497 10.7156 132.497 9.52214C132.497 8.51907 132.769 7.60682 133.315 6.78486C133.859 5.96341 134.681 5.31061 135.779 4.82646C136.877 4.34179 138.222 4.09998 139.813 4.09998C140.92 4.09998 142.01 4.23904 143.083 4.5151C144.155 4.7922 145.08 5.1897 145.859 5.70862L144.796 8.32967C143.999 7.86264 143.169 7.50822 142.304 7.26537C141.439 7.02356 140.601 6.90265 139.787 6.90265C138.455 6.90265 137.465 7.12785 136.817 7.57723C136.168 8.02713 135.844 8.62389 135.844 9.3675C135.844 9.88642 136.029 10.3099 136.401 10.6383C136.773 10.9673 137.244 11.2268 137.815 11.4167C138.386 11.6071 139.164 11.8235 140.15 12.0654C141.499 12.3772 142.606 12.7015 143.471 13.0383C144.336 13.3756 145.076 13.8909 145.69 14.5826C146.303 15.2743 146.611 16.2089 146.611 17.3843C146.611 18.3878 146.338 19.2959 145.793 20.1086C145.249 20.9217 144.421 21.5704 143.315 22.0545C142.208 22.5392 140.86 22.781 139.268 22.781C137.868 22.781 136.515 22.5817 135.209 22.1842Z" fill="white"/>
<path d="M157.924 16.1136V22.5222H154.551V16.1655L147.416 4.36011H151.023L156.342 13.2076L161.713 4.36011H165.034L157.924 16.1136Z" fill="white"/>
<path d="M168.938 22.1842C167.632 21.7867 166.599 21.2595 165.838 20.6015L167.005 17.981C167.749 18.5695 168.661 19.0494 169.742 19.421C170.823 19.7931 171.909 19.9783 172.999 19.9783C174.348 19.9783 175.355 19.7624 176.021 19.3297C176.687 18.8979 177.02 18.3266 177.02 17.6172C177.02 17.0983 176.834 16.6702 176.462 16.3329C176.09 15.9956 175.619 15.732 175.048 15.5416C174.477 15.3517 173.699 15.1358 172.713 14.8929C171.329 14.5645 170.209 14.2355 169.353 13.9075C168.496 13.5795 167.762 13.0643 167.147 12.3632C166.533 11.6627 166.226 10.7156 166.226 9.52214C166.226 8.51907 166.499 7.60682 167.044 6.78486C167.588 5.96341 168.41 5.31061 169.509 4.82646C170.606 4.34179 171.951 4.09998 173.542 4.09998C174.649 4.09998 175.74 4.23904 176.812 4.5151C177.884 4.7922 178.81 5.1897 179.588 5.70862L178.525 8.32967C177.729 7.86264 176.898 7.50822 176.034 7.26537C175.168 7.02356 174.33 6.90265 173.517 6.90265C172.184 6.90265 171.195 7.12785 170.546 7.57723C169.898 8.02713 169.573 8.62389 169.573 9.3675C169.573 9.88642 169.758 10.3099 170.131 10.6383C170.503 10.9673 170.974 11.2268 171.545 11.4167C172.115 11.6071 172.894 11.8235 173.88 12.0654C175.229 12.3772 176.335 12.7015 177.201 13.0383C178.065 13.3756 178.805 13.8909 179.419 14.5826C180.033 15.2743 180.34 16.2089 180.34 17.3843C180.34 18.3878 180.068 19.2959 179.522 20.1086C178.978 20.9217 178.151 21.5704 177.045 22.0545C175.938 22.5392 174.589 22.781 172.998 22.781C171.598 22.781 170.245 22.5817 168.938 22.1842Z" fill="white"/>
</g>
<g filter="url(#filter1_d_1538_683)">
<path d="M273.173 4.47003H275.541V22.7846H273.173V4.47003Z" fill="white"/>
<path d="M211.145 22.7858L211.122 10.1977L204.877 20.6878H203.741L197.497 10.271V22.7851H195.127V5.50726H197.151L204.358 17.6511L211.467 5.50726H213.491L213.516 22.7851H211.145V22.7858Z" fill="white"/>
<path d="M220.241 6.74102C219.936 6.44483 219.784 6.08304 219.784 5.65497C219.784 5.22761 219.937 4.86161 220.241 4.55625C220.546 4.2516 220.929 4.09998 221.388 4.09998C221.848 4.09998 222.231 4.24455 222.536 4.53157C222.84 4.82 222.993 5.17755 222.993 5.60491C222.993 6.0492 222.84 6.42367 222.536 6.72832C222.232 7.03297 221.848 7.1846 221.388 7.1846C220.929 7.1846 220.546 7.03721 220.241 6.74102ZM220.204 9.70295H222.573V22.7848H220.204V9.70295Z" fill="white"/>
<path d="M233.039 10.1725C233.845 9.77689 234.824 9.58014 235.977 9.58014V11.8756C235.844 11.8594 235.664 11.8509 235.433 11.8509C234.151 11.8509 233.143 12.2332 232.41 12.9983C231.678 13.7635 231.312 14.8545 231.312 16.2692V22.7854H228.942V9.70357H231.213V11.9003C231.624 11.1436 232.233 10.5674 233.039 10.1725Z" fill="white"/>
<path d="M249.638 10.764C250.6 11.6526 251.081 12.9777 251.081 14.7379V22.6364H248.836V20.9086C248.44 21.5172 247.877 21.9819 247.145 22.3035C246.412 22.6251 245.544 22.7852 244.542 22.7852C243.076 22.7852 241.904 22.4319 241.024 21.7238C240.144 21.0165 239.703 20.087 239.703 18.9347C239.703 17.7831 240.123 16.8578 240.962 16.1575C241.8 15.4587 243.134 15.1089 244.961 15.1089H248.712V14.6399C248.712 13.6202 248.416 12.8381 247.824 12.2951C247.231 11.7521 246.358 11.4805 245.207 11.4805C244.434 11.4805 243.676 11.6089 242.937 11.8635C242.195 12.1188 241.57 12.4601 241.061 12.8875L240.073 11.1103C240.748 10.5666 241.554 10.1519 242.492 9.86348C243.43 9.57504 244.426 9.43189 245.48 9.43189C247.289 9.43118 248.675 9.87545 249.638 10.764ZM247.281 20.3536C247.938 19.9509 248.415 19.3783 248.712 18.6378V16.8113H245.059C243.05 16.8113 242.047 17.4862 242.047 18.8353C242.047 19.4939 242.302 20.0116 242.812 20.3903C243.322 20.7683 244.03 20.958 244.934 20.958C245.839 20.958 246.623 20.757 247.281 20.3536Z" fill="white"/>
<path d="M259.535 21.9206C258.49 21.3452 257.671 20.5511 257.079 19.5384C256.485 18.5264 256.189 17.3783 256.189 16.0948C256.189 14.812 256.485 13.6639 257.079 12.6519C257.672 11.6392 258.49 10.8494 259.535 10.2824C260.579 9.71471 261.768 9.43121 263.101 9.43121C264.286 9.43121 265.344 9.66957 266.273 10.147C267.203 10.6244 267.922 11.3155 268.433 12.2203L266.631 13.3804C266.22 12.7549 265.708 12.2859 265.101 11.9735C264.491 11.6618 263.818 11.5046 263.076 11.5046C262.221 11.5046 261.451 11.6943 260.77 12.0723C260.086 12.451 259.55 12.9904 259.165 13.6893C258.778 14.3889 258.586 15.1914 258.586 16.0955C258.586 17.018 258.778 17.8276 259.165 18.5271C259.551 19.226 260.087 19.7655 260.77 20.1435C261.452 20.5222 262.222 20.7112 263.076 20.7112C263.818 20.7112 264.491 20.5553 265.101 20.2429C265.708 19.9305 266.22 19.4615 266.631 18.836L268.433 19.9707C267.922 20.8762 267.203 21.5715 266.273 22.0567C265.343 22.5419 264.286 22.7845 263.101 22.7845C261.768 22.7845 260.579 22.4968 259.535 21.9206Z" fill="white"/>
<path d="M293.694 16.1836C293.694 16.3639 293.677 16.6017 293.645 16.8969H283.068C283.215 18.0448 283.716 18.9713 284.568 19.6764C285.437 20.3651 286.511 20.7095 287.79 20.7095C289.348 20.7095 290.603 20.1847 291.554 19.1352L292.857 20.6603C292.267 21.349 291.529 21.8737 290.644 22.2345C289.775 22.5953 288.799 22.7756 287.717 22.7756C286.339 22.7756 285.118 22.4969 284.052 21.9393C282.986 21.3654 282.158 20.5701 281.567 19.5534C280.993 18.5367 280.706 17.3888 280.706 16.1098C280.706 14.8471 280.985 13.7074 281.543 12.6908C282.117 11.6741 282.896 10.887 283.879 10.3294C284.88 9.75549 286.003 9.46852 287.249 9.46852C288.496 9.46852 289.602 9.75549 290.57 10.3294C291.554 10.887 292.316 11.6741 292.857 12.6908C293.415 13.7074 293.694 14.8717 293.694 16.1836ZM287.249 11.4609C286.118 11.4609 285.167 11.8053 284.396 12.494C283.642 13.1827 283.199 14.0846 283.068 15.1997H291.431C291.3 14.101 290.849 13.2073 290.078 12.5186C289.324 11.8135 288.381 11.4609 287.249 11.4609ZM282.723 4.49988H285.724L289.07 7.69752H286.856L282.723 4.49988Z" fill="white"/>
</g>
<path d="M59.5953 35.3822H56.1306L55.4131 36.8351H54.4534L57.4059 31.0233H58.3288L61.2913 36.8351H60.3123L59.5953 35.3822ZM59.2692 34.7179L57.8621 31.8701L56.4561 34.7179H59.2692Z" fill="white"/>
<path d="M64.8675 31.0233H65.7997V36.8351H64.8675V31.0233Z" fill="white"/>
<path d="M80.21 36.1128V36.8351H75.4781V31.0233H80.0805V31.7461H76.4104V33.5307H79.6803V34.2364H76.4104V36.1128H80.21Z" fill="white"/>
<path d="M89.9349 31.0233V36.8351H89.1712L85.2596 32.5011V36.8351H84.3274V31.0233H85.091L89.0038 35.3578V31.0233H89.9349Z" fill="white"/>
<path d="M100.108 31.0233V36.8351H99.1765V34.2447H95.4312V36.8351H94.4989V31.0233H95.4312V33.5224H99.1765V31.0233H100.108Z" fill="white"/>
<path d="M108.826 35.3822H105.362L104.644 36.8351H103.686L106.638 31.0233H107.56L110.522 36.8351H109.544L108.826 35.3822ZM108.501 34.7179L107.095 31.8701L105.688 34.7179H108.501Z" fill="white"/>
<path d="M119.707 31.0233V36.8351H118.943L115.031 32.5011V36.8351H114.1V31.0233H114.863L118.776 35.3578V31.0233H119.707Z" fill="white"/>
<path d="M125.423 36.5139C124.899 36.2565 124.486 35.9021 124.189 35.4511C123.89 35.0002 123.741 34.4922 123.741 33.9276C123.741 33.3625 123.89 32.8555 124.189 32.4035C124.486 31.9526 124.9 31.5982 125.427 31.3408C125.955 31.0834 126.545 30.9547 127.197 30.9547C127.706 30.9547 128.172 31.0305 128.594 31.183C129.017 31.3351 129.378 31.5608 129.676 31.8597L129.071 32.3828C128.579 31.9235 127.967 31.6937 127.235 31.6937C126.751 31.6937 126.313 31.7912 125.921 31.9848C125.531 32.1783 125.224 32.4456 125.004 32.786C124.784 33.1264 124.674 33.5073 124.674 33.9276C124.674 34.3479 124.784 34.7288 125.004 35.0687C125.224 35.4091 125.531 35.6763 125.921 35.8699C126.313 36.064 126.751 36.161 127.235 36.161C127.962 36.161 128.574 35.9285 129.071 35.4636L129.676 35.9866C129.378 36.2855 129.016 36.5128 128.591 36.6675C128.165 36.8226 127.698 36.8999 127.189 36.8999C126.536 36.8999 125.948 36.7713 125.423 36.5139Z" fill="white"/>
<path d="M138.347 36.1128V36.8351H133.615V31.0233H138.217V31.7461H134.547V33.5307H137.817V34.2364H134.547V36.1128H138.347Z" fill="white"/>
<path d="M142.464 31.0233H145.213C145.902 31.0233 146.514 31.1452 147.047 31.3886C147.582 31.6325 147.997 31.9739 148.292 32.4145C148.587 32.8545 148.734 33.3594 148.734 33.9297C148.734 34.5 148.587 35.0044 148.292 35.4449C147.997 35.885 147.582 36.227 147.047 36.4703C146.514 36.7142 145.902 36.8357 145.213 36.8357H142.464V31.0233ZM145.157 36.1128C145.685 36.1128 146.148 36.0209 146.55 35.8388C146.951 35.6556 147.259 35.3998 147.477 35.0708C147.694 34.7418 147.804 34.3615 147.804 33.9297C147.804 33.498 147.694 33.1176 147.477 32.7881C147.259 32.4586 146.951 32.2027 146.55 32.0201C146.148 31.8374 145.685 31.7466 145.157 31.7466H143.397V36.1138H145.157V36.1128Z" fill="white"/>
<path d="M162.613 36.1128V36.8351H157.882V31.0233H162.484V31.7461H158.814V33.5307H162.084V34.2364H158.814V36.1128H162.613Z" fill="white"/>
<path d="M172.778 36.8351L172.767 32.6008L170.411 36.1294H169.983L167.625 32.6257V36.8351H166.731V31.0233H167.496L170.216 35.1082L172.898 31.0233H173.663L173.672 36.8351H172.778Z" fill="white"/>
<path d="M183.519 34.3319C183.736 34.5784 183.844 34.8897 183.844 35.2659C183.844 35.7698 183.632 36.1574 183.206 36.4283C182.781 36.6992 182.16 36.8351 181.348 36.8351H178.236V31.0233H181.161C181.907 31.0233 182.483 31.1561 182.89 31.4223C183.295 31.688 183.499 32.0559 183.499 32.5266C183.499 32.8312 183.421 33.0937 183.261 33.3153C183.104 33.5369 182.891 33.7055 182.624 33.8223C183.002 33.9152 183.301 34.0854 183.519 34.3319ZM179.168 31.6958V33.5556H181.076C181.555 33.5556 181.924 33.4772 182.181 33.3189C182.439 33.1612 182.568 32.9303 182.568 32.6257C182.568 32.3216 182.439 32.0907 182.181 31.9324C181.925 31.7747 181.555 31.6958 181.076 31.6958H179.168ZM182.503 35.9301C182.769 35.775 182.903 35.5316 182.903 35.1995C182.903 34.5519 182.372 34.2281 181.31 34.2281H179.168V36.1631H181.31C181.838 36.1626 182.235 36.0853 182.503 35.9301Z" fill="white"/>
<path d="M192.257 36.8351L190.849 35.0501C190.675 35.061 190.54 35.0667 190.439 35.0667H188.828V36.8351H187.896V31.0233H190.439C191.283 31.0233 191.947 31.2033 192.432 31.5629C192.916 31.9225 193.159 32.4181 193.159 33.0491C193.159 33.4974 193.034 33.8794 192.787 34.1949C192.537 34.5099 192.184 34.7403 191.724 34.884L193.271 36.8351H192.257ZM191.762 34.0205C192.073 33.7932 192.228 33.4694 192.228 33.0491C192.228 32.6288 192.073 32.306 191.762 32.0818C191.451 31.8577 191.002 31.7461 190.412 31.7461H188.828V34.3615H190.412C191.002 34.3609 191.451 34.2478 191.762 34.0205Z" fill="white"/>
<path d="M199.68 34.8259V36.8351H198.759V34.8093L196.169 31.0233H197.166L199.252 34.0869L201.348 31.0233H202.271L199.68 34.8259Z" fill="white"/>
<path d="M206.704 36.5139C206.176 36.2565 205.763 35.901 205.461 35.447C205.16 34.9929 205.008 34.4865 205.008 33.9276C205.008 33.3682 205.16 32.8617 205.461 32.4077C205.763 31.9541 206.176 31.5982 206.704 31.3408C207.232 31.0834 207.825 30.9547 208.484 30.9547C209.136 30.9547 209.726 31.0834 210.254 31.3408C210.782 31.5982 211.194 31.9526 211.492 32.4035C211.79 32.855 211.94 33.3625 211.94 33.9276C211.94 34.4922 211.79 34.9997 211.492 35.4511C211.194 35.9021 210.782 36.2565 210.254 36.5139C209.726 36.7713 209.136 36.8999 208.484 36.8999C207.825 36.8999 207.232 36.7713 206.704 36.5139ZM209.774 35.8704C210.156 35.6769 210.456 35.4096 210.677 35.0692C210.898 34.7293 211.007 34.3484 211.007 33.9281C211.007 33.5078 210.897 33.1269 210.677 32.7865C210.456 32.4461 210.156 32.1788 209.774 31.9853C209.391 31.7917 208.961 31.6942 208.483 31.6942C208.005 31.6942 207.571 31.7917 207.183 31.9853C206.795 32.1788 206.49 32.4461 206.27 32.7865C206.051 33.1269 205.94 33.5078 205.94 33.9281C205.94 34.3484 206.05 34.7293 206.27 35.0692C206.49 35.4096 206.795 35.6769 207.183 35.8704C207.571 36.0645 208.004 36.1615 208.483 36.1615C208.962 36.1615 209.391 36.0645 209.774 35.8704Z" fill="white"/>
<path d="M221.567 36.6971C221.109 36.5611 220.752 36.3852 220.492 36.1693L220.836 35.5217C221.084 35.7215 221.402 35.8829 221.79 36.0079C222.179 36.1325 222.578 36.1942 222.987 36.1942C223.528 36.1942 223.931 36.1127 224.198 35.9493C224.466 35.7858 224.599 35.5689 224.599 35.2975C224.599 35.0983 224.526 34.9364 224.381 34.8113C224.234 34.6873 224.054 34.5913 223.841 34.5249C223.626 34.4584 223.323 34.3842 222.931 34.3007C222.44 34.1959 222.045 34.0905 221.743 33.9852C221.442 33.8804 221.185 33.718 220.972 33.4995C220.756 33.2805 220.649 32.9863 220.649 32.6153C220.649 32.3049 220.74 32.0258 220.925 31.7767C221.108 31.5281 221.385 31.3283 221.758 31.1789C222.131 31.03 222.594 30.9547 223.146 30.9547C223.531 30.9547 223.911 30.9993 224.283 31.0876C224.655 31.1763 224.976 31.3034 225.243 31.4695L224.935 32.1337C224.662 31.9785 224.37 31.8613 224.059 31.7803C223.749 31.7004 223.444 31.6604 223.147 31.6604C222.619 31.6604 222.224 31.7461 221.959 31.9178C221.695 32.0891 221.564 32.3106 221.564 32.5815C221.564 32.7813 221.638 32.9427 221.786 33.0678C221.935 33.1923 222.121 33.2893 222.341 33.3583C222.562 33.4279 222.861 33.501 223.24 33.5784C223.731 33.6837 224.126 33.789 224.424 33.8939C224.721 33.9992 224.977 34.1595 225.19 34.3754C225.405 34.5913 225.513 34.8824 225.513 35.2477C225.513 35.5518 225.419 35.8299 225.233 36.0816C225.048 36.3333 224.764 36.5331 224.386 36.6794C224.007 36.8257 223.541 36.8994 222.989 36.8994C222.497 36.9005 222.024 36.8325 221.567 36.6971Z" fill="white"/>
<path d="M234.212 36.1128V36.8351H229.48V31.0233H234.082V31.7461H230.412V33.5307H233.681V34.2364H230.412V36.1128H234.212Z" fill="white"/>
<path d="M238.33 31.0233H239.261V36.1133H242.792V36.8357H238.33L238.33 31.0233Z" fill="white"/>
<path d="M251.202 36.1128V36.8351H246.472V31.0233H251.073V31.7461H247.403V33.5307H250.673V34.2364H247.403V36.1128H251.202Z" fill="white"/>
<path d="M256.444 36.5139C255.92 36.2565 255.508 35.9021 255.21 35.4511C254.912 35.0002 254.762 34.4922 254.762 33.9276C254.762 33.3625 254.912 32.8555 255.21 32.4035C255.509 31.9526 255.921 31.5982 256.448 31.3408C256.976 31.0834 257.566 30.9547 258.219 30.9547C258.727 30.9547 259.193 31.0305 259.615 31.183C260.039 31.3351 260.399 31.5608 260.697 31.8597L260.092 32.3828C259.6 31.9235 258.988 31.6937 258.256 31.6937C257.772 31.6937 257.333 31.7912 256.943 31.9848C256.552 32.1783 256.245 32.4456 256.025 32.786C255.805 33.1264 255.695 33.5073 255.695 33.9276C255.695 34.3479 255.805 34.7288 256.025 35.0687C256.245 35.4091 256.552 35.6763 256.943 35.8699C257.333 36.064 257.772 36.161 258.256 36.161C258.982 36.161 259.594 35.9285 260.092 35.4636L260.697 35.9866C260.399 36.2855 260.037 36.5128 259.611 36.6675C259.186 36.8226 258.719 36.8999 258.211 36.8999C257.557 36.8999 256.969 36.7713 256.444 36.5139Z" fill="white"/>
<path d="M265.856 31.7456H263.62V31.0228H269.014V31.7456H266.779V36.8352H265.856V31.7456Z" fill="white"/>
<path d="M272.638 31.0233H273.57V36.8351H272.638V31.0233Z" fill="white"/>
<path d="M279.299 36.5139C278.77 36.2565 278.356 35.901 278.055 35.447C277.753 34.9929 277.603 34.4865 277.603 33.9276C277.603 33.3682 277.754 32.8617 278.055 32.4077C278.356 31.9541 278.77 31.5982 279.299 31.3408C279.827 31.0834 280.42 30.9547 281.077 30.9547C281.73 30.9547 282.319 31.0834 282.848 31.3408C283.375 31.5982 283.789 31.9526 284.086 32.4035C284.385 32.855 284.533 33.3625 284.533 33.9276C284.533 34.4922 284.385 34.9997 284.086 35.4511C283.789 35.9021 283.375 36.2565 282.848 36.5139C282.319 36.7713 281.73 36.8999 281.077 36.8999C280.42 36.8999 279.828 36.7713 279.299 36.5139ZM282.368 35.8704C282.75 35.6769 283.051 35.4096 283.272 35.0692C283.492 34.7293 283.602 34.3484 283.602 33.9281C283.602 33.5078 283.492 33.1269 283.272 32.7865C283.051 32.4461 282.75 32.1788 282.368 31.9853C281.987 31.7917 281.557 31.6942 281.077 31.6942C280.599 31.6942 280.167 31.7917 279.778 31.9853C279.39 32.1788 279.085 32.4461 278.865 32.7865C278.646 33.1269 278.535 33.5078 278.535 33.9281C278.535 34.3484 278.646 34.7293 278.865 35.0692C279.086 35.4096 279.39 35.6769 279.778 35.8704C280.167 36.0645 280.598 36.1615 281.077 36.1615C281.557 36.161 281.987 36.0645 282.368 35.8704Z" fill="white"/>
<path d="M294.175 31.0233V36.8351H293.411L289.5 32.5011V36.8351H288.566V31.0233H289.331L293.244 35.3578V31.0233H294.175Z" fill="white"/>
<defs>
<filter id="filter0_d_1538_683" x="50.4534" y="4.09998" width="133.887" height="26.681" filterUnits="userSpaceOnUse" color-interpolation-filters="sRGB">
<feFlood flood-opacity="0" result="BackgroundImageFix"/>
<feColorMatrix in="SourceAlpha" type="matrix" values="0 0 0 0 0 0 0 0 0 0 0 0 0 0 0 0 0 0 127 0" result="hardAlpha"/>
<feOffset dy="4"/>
<feGaussianBlur stdDeviation="2"/>
<feComposite in2="hardAlpha" operator="out"/>
<feColorMatrix type="matrix" values="0 0 0 0 0 0 0 0 0 0 0 0 0 0 0 0 0 0 0.25 0"/>
<feBlend mode="normal" in2="BackgroundImageFix" result="effect1_dropShadow_1538_683"/>
<feBlend mode="normal" in="SourceGraphic" in2="effect1_dropShadow_1538_683" result="shape"/>
</filter>
<filter id="filter1_d_1538_683" x="191.127" y="4.09998" width="106.567" height="26.6859" filterUnits="userSpaceOnUse" color-interpolation-filters="sRGB">
<feFlood flood-opacity="0" result="BackgroundImageFix"/>
<feColorMatrix in="SourceAlpha" type="matrix" values="0 0 0 0 0 0 0 0 0 0 0 0 0 0 0 0 0 0 127 0" result="hardAlpha"/>
<feOffset dy="4"/>
<feGaussianBlur stdDeviation="2"/>
<feComposite in2="hardAlpha" operator="out"/>
<feColorMatrix type="matrix" values="0 0 0 0 0 0 0 0 0 0 0 0 0 0 0 0 0 0 0.25 0"/>
<feBlend mode="normal" in2="BackgroundImageFix" result="effect1_dropShadow_1538_683"/>
<feBlend mode="normal" in="SourceGraphic" in2="effect1_dropShadow_1538_683" result="shape"/>
</filter>
</defs>
</svg>
